<?xml version="1.0" encoding="utf-8"?>
<!-- Generator: Adobe Illustrator 24.0.2, SVG Export Plug-In . SVG Version: 6.00 Build 0)  -->
<svg version="1.1" id="LOGO_1_" xmlns="http://www.w3.org/2000/svg" xmlns:xlink="http://www.w3.org/1999/xlink" x="0px" y="0px"
	 viewBox="0 0 226.7 283.5" style="enable-background:new 0 0 226.7 283.5;" xml:space="preserve">
<style type="text/css">
  @keyframes fadeIn {
    0% {
      opacity: 1;
    }

    100% {
      opacity: 0;
    }
  }
  .simbolo{
    animation: fadeIn 1s infinite;
    animation-direction: alternate;
  }
	.st0{fill:url(#SVGID_1_);}
	.st1{filter:url(#Adobe_OpacityMaskFilter);}
	.st2{fill:url(#SVGID_3_);}
	.st3{mask:url(#SVGID_2_);fill:url(#SVGID_4_);}
	.st4{fill:url(#SVGID_5_);}
	.st5{fill:url(#SVGID_6_);}
	.st6{fill:url(#SVGID_7_);}
	.st7{fill:url(#SVGID_8_);}
	.st8{fill:url(#SVGID_9_);}
	.st9{fill:url(#SVGID_10_);}
	.st10{fill:url(#SVGID_11_);}
	.st11{fill:url(#SVGID_12_);}
	.st12{fill:url(#SVGID_13_);}
	.st13{fill:url(#SVGID_14_);}
	.st14{fill:url(#SVGID_15_);}
	.st15{fill:url(#SVGID_16_);}
	.st16{fill:url(#SVGID_17_);}
	.st17{fill:url(#SVGID_18_);}
	.st18{fill:#FFFFFF;}
	.st19{clip-path:url(#SVGID_20_);}
	.st20{filter:url(#Adobe_OpacityMaskFilter_1_);}
	.st21{fill:url(#SVGID_22_);}
	.st22{mask:url(#SVGID_21_);fill:url(#SVGID_23_);}
</style>
<g class="simbolo">
	<linearGradient id="SVGID_1_" gradientUnits="userSpaceOnUse" x1="113.3691" y1="278.0869" x2="113.3691" y2="5.3775">
		<stop  offset="0" style="stop-color:#E6E6E6"/>
		<stop  offset="0.6866" style="stop-color:#FFFFFF"/>
		<stop  offset="1" style="stop-color:#919191"/>
	</linearGradient>
	<path class="st0" d="M219.9,136.4c-4.8-10.2-16.2-32.3-27.6-53.2c-16.2-29.4-41.5-71.3-44.1-74.9c-0.7-1-1.3-1.6-1.9-2
		c-0.3-0.2-0.6-0.4-1-0.5c-0.6-0.2-2.1-0.1-3.1,0c-0.6,0.1-1.3,0-1.8,0c-5.4-0.2-16.3-0.5-27-0.5c-13.2,0-29,0.4-31.1,0.6
		c-1.1,0.1-1.5,0.3-1.9,0.5c-0.5,0.3-1.1,0.6-1.9,1.8C76.1,12,50.6,53.8,34.5,83.2c-11.5,20.9-22.8,43-27.6,53.2
		c-1.3,2.7-1.5,4.5-1.5,5.3c0,1.5,0.5,3.3,1.5,5.3c4.8,10.2,16.2,32.3,27.6,53.2c16.2,29.4,41.5,71.3,44.1,74.9
		c0.4,0.6,0.8,1,1.1,1.4c0.6,0.6,1.1,1,1.7,1.2c0.6,0.2,1.9,0.1,3,0c0.6-0.1,1.3,0,1.8,0c6.5,0.2,16.5,0.5,27.1,0.5
		c13.2,0,28.5-0.3,30.8-0.6l0.4,0c0.9-0.1,1.4-0.2,1.6-0.4c0.5-0.2,1-0.6,2.1-2.1c2.6-3.6,27.8-45.3,44-74.7
		c11.5-20.9,22.8-43,27.6-53.2c1.3-2.7,1.5-4.8,1.5-5.7C221.4,139.9,220.9,138.5,219.9,136.4z M145.2,147.3
		c-10.8,24.3-18.5,39.4-29.9,61.3c-0.7,1.3-1.2,2.1-1.9,2.1c-0.8,0-1.3-0.8-1.9-2.1c-11.4-21.9-19.1-37.1-29.9-61.3
		c-0.9-2.1-1.6-3.6-1.6-5.6c0-1.9,0.7-3.4,1.6-5.5c10.8-24.3,18.5-39.4,29.9-61.3c0.7-1.3,1.2-2.1,1.9-2.1l0,0l0,0l0,0
		c0.8,0,1.3,0.8,1.9,2.1c11.4,21.9,19.1,37.1,29.9,61.3c0.9,2.1,1.6,3.6,1.6,5.6C146.8,143.7,146.1,145.2,145.2,147.3z"/>
	<defs>
		<filter id="Adobe_OpacityMaskFilter" filterUnits="userSpaceOnUse" x="5.4" y="5.4" width="216" height="272.7">

				<feColorMatrix  type="matrix" values="-1 0 0 0 1  0 -1 0 0 1  0 0 -1 0 1  0 0 0 1 0" color-interpolation-filters="sRGB" result="source"/>
			<feFlood  style="flood-color:white;flood-opacity:1" result="back"/>
			<feBlend  in="source" in2="back" mode="normal"/>
		</filter>
	</defs>
	<mask maskUnits="userSpaceOnUse" x="5.4" y="5.4" width="216" height="272.7" id="SVGID_2_">
		<g class="st1">
			<linearGradient id="SVGID_3_" gradientUnits="userSpaceOnUse" x1="109.9434" y1="297.5381" x2="109.9434" y2="143.8272">
				<stop  offset="0.8545" style="stop-color:#FFFFFF"/>
				<stop  offset="1" style="stop-color:#000000"/>
			</linearGradient>
			<rect x="-28.8" y="143.8" class="st2" width="277.5" height="153.7"/>
		</g>
	</mask>

		<radialGradient id="SVGID_4_" cx="97.1338" cy="75.7095" r="136.4821" gradientTransform="matrix(0.9963 0 0 1 2.4994 0)" gradientUnits="userSpaceOnUse">
		<stop  offset="0.401" style="stop-color:#FFFFFF"/>
		<stop  offset="1" style="stop-color:#919191"/>
	</radialGradient>
	<path class="st3" d="M219.9,136.4c-4.8-10.2-16.2-32.3-27.6-53.2c-16.2-29.4-41.5-71.3-44.1-74.9c-0.7-1-1.3-1.6-1.9-2
		c-0.3-0.2-0.6-0.4-1-0.5c-0.6-0.2-2.1-0.1-3.1,0c-0.6,0.1-1.3,0-1.8,0c-5.4-0.2-16.3-0.5-27-0.5c-13.2,0-29,0.4-31.1,0.6
		c-1.1,0.1-1.5,0.3-1.9,0.5c-0.5,0.3-1.1,0.6-1.9,1.8C76.1,12,50.6,53.8,34.5,83.2c-11.5,20.9-22.8,43-27.6,53.2
		c-1.3,2.7-1.5,4.5-1.5,5.3c0,1.5,0.5,3.3,1.5,5.3c4.8,10.2,16.2,32.3,27.6,53.2c16.2,29.4,41.5,71.3,44.1,74.9
		c0.4,0.6,0.8,1,1.1,1.4c0.6,0.6,1.1,1,1.7,1.2c0.6,0.2,1.9,0.1,3,0c0.6-0.1,1.3,0,1.8,0c6.5,0.2,16.5,0.5,27.1,0.5
		c13.2,0,28.5-0.3,30.8-0.6l0.4,0c0.9-0.1,1.4-0.2,1.6-0.4c0.5-0.2,1-0.6,2.1-2.1c2.6-3.6,27.8-45.3,44-74.7
		c11.5-20.9,22.8-43,27.6-53.2c1.3-2.7,1.5-4.8,1.5-5.7C221.4,139.9,220.9,138.5,219.9,136.4z M145.2,147.3
		c-10.8,24.3-18.5,39.4-29.9,61.3c-0.7,1.3-1.2,2.1-1.9,2.1c-0.8,0-1.3-0.8-1.9-2.1c-11.4-21.9-19.1-37.1-29.9-61.3
		c-0.9-2.1-1.6-3.6-1.6-5.6c0-1.9,0.7-3.4,1.6-5.5c10.8-24.3,18.5-39.4,29.9-61.3c0.7-1.3,1.2-2.1,1.9-2.1l0,0l0,0l0,0
		c0.8,0,1.3,0.8,1.9,2.1c11.4,21.9,19.1,37.1,29.9,61.3c0.9,2.1,1.6,3.6,1.6,5.6C146.8,143.7,146.1,145.2,145.2,147.3z"/>
	<g>
		<linearGradient id="SVGID_5_" gradientUnits="userSpaceOnUse" x1="59.447" y1="276.7488" x2="59.447" y2="142.409">
			<stop  offset="1.042330e-02" style="stop-color:#E6E6E6"/>
			<stop  offset="0.3385" style="stop-color:#A6A6A6"/>
			<stop  offset="0.6941" style="stop-color:#333333"/>
			<stop  offset="0.8452" style="stop-color:#1A1A1A"/>
			<stop  offset="0.948" style="stop-color:#0D0D0D"/>
			<stop  offset="0.9621" style="stop-color:#101010"/>
			<stop  offset="0.9724" style="stop-color:#191919"/>
			<stop  offset="0.9815" style="stop-color:#292929"/>
			<stop  offset="0.9899" style="stop-color:#404040"/>
			<stop  offset="0.9978" style="stop-color:#5C5C5C"/>
			<stop  offset="1" style="stop-color:#666666"/>
		</linearGradient>
		<path class="st4" d="M73.2,150.6c0,0-3.2-6-3.3-8.3c0-0.3,0-0.4,0-0.7c0.1-0.6-0.2-0.4-0.7,0.1c-0.9,0.9-2.6,1.7-6.6,1.7
			c-3.5,0-33.8,0-48.1,0c-2.1,0-4.9-0.2-4.9,3.2c0,2,1.7,5.9,5.2,12.8c19.1,37.4,40.3,74.7,63.1,111.2c0,0,3.5,5.6,3.8,6
			c0.4,0.4,0.8,0.6,1.6,0.6c0,0,14.4-26.4,26.1-55.2C96.4,198,84.4,174.3,73.2,150.6z"/>
		<linearGradient id="SVGID_6_" gradientUnits="userSpaceOnUse" x1="83.2766" y1="277.1217" x2="83.2766" y2="277.121">
			<stop  offset="1.042330e-02" style="stop-color:#E6E6E6"/>
			<stop  offset="0.3385" style="stop-color:#A6A6A6"/>
			<stop  offset="0.6941" style="stop-color:#333333"/>
			<stop  offset="0.8452" style="stop-color:#1A1A1A"/>
			<stop  offset="0.948" style="stop-color:#0D0D0D"/>
			<stop  offset="0.9621" style="stop-color:#101010"/>
			<stop  offset="0.9724" style="stop-color:#191919"/>
			<stop  offset="0.9815" style="stop-color:#292929"/>
			<stop  offset="0.9899" style="stop-color:#404040"/>
			<stop  offset="0.9978" style="stop-color:#5C5C5C"/>
			<stop  offset="1" style="stop-color:#666666"/>
		</linearGradient>
		<path class="st5" d="M83.3,277.1C83.3,277.1,83.3,277.1,83.3,277.1C83.3,277.1,83.3,277.1,83.3,277.1z"/>
	</g>
	<linearGradient id="SVGID_7_" gradientUnits="userSpaceOnUse" x1="152.0404" y1="276.7429" x2="152.0404" y2="142.286">
		<stop  offset="1.042330e-02" style="stop-color:#E6E6E6"/>
		<stop  offset="0.3385" style="stop-color:#A6A6A6"/>
		<stop  offset="0.6941" style="stop-color:#333333"/>
		<stop  offset="0.8452" style="stop-color:#1A1A1A"/>
		<stop  offset="0.9538" style="stop-color:#0D0D0D"/>
		<stop  offset="0.9663" style="stop-color:#101010"/>
		<stop  offset="0.9754" style="stop-color:#191919"/>
		<stop  offset="0.9835" style="stop-color:#292929"/>
		<stop  offset="0.991" style="stop-color:#404040"/>
		<stop  offset="0.998" style="stop-color:#5C5C5C"/>
		<stop  offset="1" style="stop-color:#666666"/>
	</linearGradient>
	<path class="st6" d="M218.7,142.1c-0.5,0.5-2,1.3-5.2,1.3c-1.2,0-28,0-39.7,0c-18.2,0-16.3-0.5-21.1,9.1c-2.1,4.3-4.3,9.3-6.5,13.5
		C130.4,199.2,91.6,266,86.4,274.3c-2,3.1-2.3,3.3-0.8,3.3c0,0,13.1,0.5,27.8,0.5c22.9,0,31-0.6,31-0.6
		c13.3-20.6,44.9-72.9,67.4-118.2c5.2-10.4,7.8-15,7.5-17.2C219.3,141.6,218.9,141.8,218.7,142.1z"/>
	<linearGradient id="SVGID_8_" gradientUnits="userSpaceOnUse" x1="107.5066" y1="140.834" x2="107.5066" y2="5.4984">
		<stop  offset="0" style="stop-color:#333333"/>
		<stop  offset="9.080525e-03" style="stop-color:#282828"/>
		<stop  offset="2.380157e-02" style="stop-color:#1D1D1D"/>
		<stop  offset="4.003730e-02" style="stop-color:#1A1A1A"/>
		<stop  offset="0.1234" style="stop-color:#141414"/>
		<stop  offset="0.2278" style="stop-color:#050505"/>
		<stop  offset="0.2521" style="stop-color:#000000"/>
	</linearGradient>
	<path class="st7" d="M143.3,6.4c-1,0-1.7,0.7-3,2.8c-11.2,17.4-49.9,90.3-65.7,124.3c-1.9,4.2-2.9,6.2-2.9,8.2l8.2,0c0,0,0,0,0,0
		c0-1.9,0.7-3.4,1.6-5.5c10.8-24.3,18.5-39.4,29.9-61.3c0.7-1.3,1.2-2.1,1.9-2.1l0,0l3.2-9.3C127.7,35.6,143.3,6.4,143.3,6.4z"/>
	<linearGradient id="SVGID_9_" gradientUnits="userSpaceOnUse" x1="134.1885" y1="141.7722" x2="134.1885" y2="63.4282">
		<stop  offset="0" style="stop-color:#737373"/>
		<stop  offset="0.1483" style="stop-color:#6D6D6D"/>
		<stop  offset="0.3318" style="stop-color:#5E5E5E"/>
		<stop  offset="0.534" style="stop-color:#454545"/>
		<stop  offset="0.7481" style="stop-color:#222222"/>
		<stop  offset="0.7954" style="stop-color:#1A1A1A"/>
		<stop  offset="0.9207" style="stop-color:#000000"/>
	</linearGradient>
	<path class="st8" d="M155,141.8c0-2-0.9-4-2.9-8.1c-10.9-23.2-22.4-45.8-35.6-70.2l-3.2,9.3l0,0l0,0c0.8,0,1.3,0.8,1.9,2.1
		c11.4,21.9,19.1,37.1,29.9,61.3c0.9,2.1,1.6,3.6,1.6,5.6c0,0,0,0,0,0H155z"/>
	<linearGradient id="SVGID_10_" gradientUnits="userSpaceOnUse" x1="92.5097" y1="220.2" x2="92.5097" y2="141.8158">
		<stop  offset="0.3571" style="stop-color:#BFBFBF"/>
		<stop  offset="0.4742" style="stop-color:#BABABA"/>
		<stop  offset="0.6093" style="stop-color:#ADADAD"/>
		<stop  offset="0.7533" style="stop-color:#959595"/>
		<stop  offset="0.9026" style="stop-color:#757575"/>
		<stop  offset="0.9631" style="stop-color:#666666"/>
		<stop  offset="1" style="stop-color:#333333"/>
	</linearGradient>
	<path class="st9" d="M113.4,210.7L113.4,210.7c-0.8,0-1.3-0.8-1.9-2.1c-11.4-21.9-19.1-37.1-29.9-61.3c-0.9-2.1-1.6-3.6-1.6-5.6
		c0,0,0,0,0,0l-8.2,0c0,2,0.9,4.1,2.9,8.2v0c10.9,23.2,22.3,45.8,35.5,70.2L113.4,210.7z"/>
	<linearGradient id="SVGID_11_" gradientUnits="userSpaceOnUse" x1="123.2884" y1="193.6266" x2="51.9869" y2="161.4644">
		<stop  offset="1.320000e-02" style="stop-color:#F2F2F2;stop-opacity:0.8"/>
		<stop  offset="0.1096" style="stop-color:#EDEDED;stop-opacity:0"/>
	</linearGradient>
	<path class="st10" d="M113.4,210.7L113.4,210.7c-0.8,0-1.3-0.8-1.9-2.1c-11.4-21.9-19.1-37.1-29.9-61.3c-0.9-2.1-1.6-3.6-1.6-5.6
		c0,0,0,0,0,0l-8.2,0c0,2,0.9,4.1,2.9,8.2v0c10.9,23.2,22.3,45.8,35.5,70.2L113.4,210.7z"/>
	<linearGradient id="SVGID_12_" gradientUnits="userSpaceOnUse" x1="119.1455" y1="276.2652" x2="119.1455" y2="140.9038">
		<stop  offset="0" style="stop-color:#FFFFFF"/>
		<stop  offset="0.2169" style="stop-color:#F9F9F9"/>
		<stop  offset="0.5128" style="stop-color:#E7E7E7"/>
		<stop  offset="0.853" style="stop-color:#CBCBCB"/>
		<stop  offset="0.9693" style="stop-color:#BFBFBF"/>
		<stop  offset="0.9913" style="stop-color:#737373"/>
	</linearGradient>
	<path class="st11" d="M83.3,277.1c0.9,0,2-1.1,3.2-3c0.3-0.5,0.8-1.3,1.3-2.2c8.4-14.4,49.2-89.6,64.2-122c1.9-4.2,2.9-6.2,2.9-8.3
		h-8.2c0,0,0,0,0,0c0,2-0.7,3.5-1.6,5.5c-10.8,24.3-18.5,39.4-29.9,61.3c-0.7,1.3-1.2,2.1-1.9,2.1l-3.3,9.4
		C98.3,249.6,83.3,277.1,83.3,277.1z"/>
	<linearGradient id="SVGID_13_" gradientUnits="userSpaceOnUse" x1="39.8616" y1="281.6172" x2="39.8616" y2="141.7324">
		<stop  offset="0" style="stop-color:#666666"/>
		<stop  offset="0.1931" style="stop-color:#5D5D5D"/>
		<stop  offset="0.5879" style="stop-color:#515151"/>
		<stop  offset="0.9698" style="stop-color:#4D4D4D"/>
		<stop  offset="0.988" style="stop-color:#767676"/>
		<stop  offset="1" style="stop-color:#8C8C8C"/>
	</linearGradient>
	<path class="st12" d="M79.7,276.5c-0.3-0.4-0.7-0.8-1.1-1.4c-2.6-3.6-27.9-45.5-44.1-74.9c-11.5-20.9-22.8-43-27.6-53.2
		c-1-2.1-1.5-3.9-1.5-5.3l-5.3,0c0,1.8,0.4,4.2,2,7.6c3.8,8.2,14.3,28.9,27.8,53.5c14.7,26.8,41.5,71.4,44.5,75.5
		c1.2,1.7,2.3,2.7,3.3,3.3L79.7,276.5z"/>
	<linearGradient id="SVGID_14_" gradientUnits="userSpaceOnUse" x1="86.5127" y1="264.7009" x2="140.3821" y2="295.8024">
		<stop  offset="1.931200e-02" style="stop-color:#666666"/>
		<stop  offset="4.004283e-02" style="stop-color:#4B4B4B"/>
		<stop  offset="6.210766e-02" style="stop-color:#373737"/>
		<stop  offset="8.391306e-02" style="stop-color:#2A2A2A"/>
		<stop  offset="0.105" style="stop-color:#262626"/>
	</linearGradient>
	<path class="st13" d="M77.6,281.6c1.4,0.9,2.8,1,4.4,1.2c4,0.4,21.4,0.6,31.4,0.6c10,0,28.8-0.4,31.4-0.6c1.2-0.1,2.4-0.2,3.5-0.7
		l-2.1-5c-0.3,0.1-0.8,0.3-1.6,0.4l-0.4,0c-2.3,0.3-17.7,0.6-30.8,0.6c-10.6,0-20.6-0.2-27.1-0.5c-0.5,0-1.3,0-1.8,0
		c-1.1,0.1-2.3,0.2-3,0c-0.6-0.2-1.2-0.6-1.7-1.2L77.6,281.6z"/>
	<linearGradient id="SVGID_15_" gradientUnits="userSpaceOnUse" x1="127.2864" y1="39.8602" x2="246.6901" y2="105.2319">
		<stop  offset="0" style="stop-color:#595959"/>
		<stop  offset="1" style="stop-color:#737373"/>
	</linearGradient>
	<path class="st14" d="M226.7,141.7c0-1.5-0.3-4.1-2-7.6c-4-8.4-16.9-33.8-27.8-53.5c-14.5-26.4-41.4-71.3-44.5-75.5
		c-1.6-2.2-2.9-3.2-4.1-3.8l-2,4.9c0.6,0.4,1.2,1.1,1.9,2c2.6,3.6,27.9,45.5,44.1,74.9c11.5,20.9,22.8,43,27.6,53.2
		c1,2.1,1.5,3.5,1.5,5L226.7,141.7z"/>
	<linearGradient id="SVGID_16_" gradientUnits="userSpaceOnUse" x1="145.0998" y1="12.7105" x2="80.4214" y2="-5.8357">
		<stop  offset="9.552040e-03" style="stop-color:#595959"/>
		<stop  offset="2.522372e-02" style="stop-color:#757575"/>
		<stop  offset="4.406418e-02" style="stop-color:#909090"/>
		<stop  offset="6.085027e-02" style="stop-color:#A0A0A0"/>
		<stop  offset="7.376030e-02" style="stop-color:#A6A6A6"/>
		<stop  offset="0.5011" style="stop-color:#D0D0CF"/>
		<stop  offset="1" style="stop-color:#BFBFBF"/>
	</linearGradient>
	<path class="st15" d="M78.3,1.4l2.1,5.1c0.4-0.2,0.8-0.4,1.9-0.5c2.1-0.2,17.9-0.6,31.1-0.6c10.7,0,21.6,0.2,27,0.5
		c0.5,0,1.3,0,1.8,0c1.1-0.1,2.5-0.2,3.1,0c0.3,0.1,0.7,0.3,1,0.5l2-4.9c-1.2-0.5-2.3-0.6-3.7-0.7c-4.1-0.4-22-0.6-31.3-0.6
		c-8.2,0-27.3,0.2-31.8,0.7C80.2,0.8,79.2,1.1,78.3,1.4z"/>
	<linearGradient id="SVGID_17_" gradientUnits="userSpaceOnUse" x1="-18.0698" y1="94.5801" x2="97.2698" y2="50.3054">
		<stop  offset="0" style="stop-color:#8C8C8C"/>
		<stop  offset="0.9868" style="stop-color:#737373"/>
		<stop  offset="1" style="stop-color:#BFBFBF"/>
	</linearGradient>
	<path class="st16" d="M78.3,1.4c-1.7,0.7-2.7,1.9-4.2,4c-3.1,4-29.9,49.2-44.3,75.2C19.7,98.9,3.5,130.6,2,134.1
		c-1.5,3.5-2,5.8-2,7.6l5.3,0c0-0.8,0.2-2.6,1.5-5.3c4.8-10.2,16.2-32.3,27.6-53.2C50.6,53.8,76.1,12,78.5,8.3
		c0.8-1.3,1.4-1.6,1.9-1.8L78.3,1.4z"/>
	<linearGradient id="SVGID_18_" gradientUnits="userSpaceOnUse" x1="186.4606" y1="282.0488" x2="186.4606" y2="141.3936">
		<stop  offset="1.902380e-02" style="stop-color:#262626"/>
		<stop  offset="0.2083" style="stop-color:#2F2F2F"/>
		<stop  offset="0.5954" style="stop-color:#3C3C3C"/>
		<stop  offset="0.9698" style="stop-color:#404040"/>
		<stop  offset="0.9854" style="stop-color:#5C5C5C"/>
		<stop  offset="1" style="stop-color:#737373"/>
	</linearGradient>
	<path class="st17" d="M148.3,282c1.3-0.6,2.6-1.6,4.1-3.8c2.9-4,31.7-52.1,44.5-75.5c12.8-23.3,26.3-50.2,27.8-53.5
		c1.8-4.1,2-6.1,2-7.6l-5.3-0.3c0,0.8-0.2,3-1.5,5.7c-4.8,10.2-16.2,32.3-27.6,53.2c-16.2,29.4-41.4,71.1-44,74.7
		c-1.1,1.5-1.5,1.9-2.1,2.1c0,0,0,0,0,0L148.3,282z"/>
	<path class="st18" d="M142.2,5.8c0.1,0,0.2,0,0.3,0c0,0-1.3,1-4.8,1c-4.1,0-12.6-0.2-19.4-0.2c-12.6-0.1-27.6,0.2-34.6,0.5
		c-3.7,0.2-3.9,0.6-6.3,3.1l0,0l1.2-1.8c0.8-1.3,1.4-1.6,1.9-1.8c0.4-0.2,0.8-0.4,1.9-0.5c2.1-0.2,17.9-0.6,31.1-0.6
		c10.7,0,21.6,0.2,27,0.5C140.9,5.9,141.6,5.9,142.2,5.8"/>
	<g>
		<defs>
			<path id="SVGID_19_" d="M226.7,141.7c0-1.3-0.3-4-2-7.6c-4.1-8.6-16.9-33.8-27.8-53.5c-0.8-1.5-1.7-3.1-2.6-4.7
				c-11.7-7.1-25.5-11.2-40.2-11.2c-14.6,0-28.3,4.1-40,11.1c1,1.9,9,17.2,16.3,32.1c6.8,14,12.8,27.4,13.5,28.9
				c0.9,2,1.4,3.3,1.4,4.9c0,1.6-0.5,2.8-1.4,4.8l0,0.1c-0.1,0.1-6.3,14.2-13.5,29c-6.5,13.2-13.5,26.8-16.2,32l-0.1,0.2
				c-0.3,0.5-0.5,0.9-0.6,0.9c-0.1,0-0.3-0.4-0.6-0.9c0-0.1-0.2-0.3-0.4-0.8c-7.6-14.6-12.9-25.2-16-31.5c-6.9-14.2-13.1-28-13.5-29
				l-0.1-0.1c-0.8-1.8-1.4-3.3-1.4-4.8c0-1.5,0.7-3.2,1.5-4.8c0-0.1,0.2-0.4,0.4-0.8c4.4-9.9,8.8-19.4,13.1-28.1
				c6.3-12.7,13.3-26.3,15.6-30.8C90.4,91,76.2,115.3,76.2,142.9c0,43.2,34.9,78.3,78,78.3c13.9,0,26.9-3.6,38.2-10
				c1.7-3,3.3-5.8,4.6-8.3c12.4-22.7,26.2-49.9,27.8-53.5C226.5,145.4,226.7,143.4,226.7,141.7z"/>
		</defs>
		<clipPath id="SVGID_20_">
			<use xlink:href="#SVGID_19_"  style="overflow:visible;"/>
		</clipPath>
		<g class="st19">
			<defs>
				<filter id="Adobe_OpacityMaskFilter_1_" filterUnits="userSpaceOnUse" x="76.4" y="64.7" width="156.5" height="156.5">
					<feColorMatrix  type="matrix" values="1 0 0 0 0  0 1 0 0 0  0 0 1 0 0  0 0 0 1 0"/>
				</filter>
			</defs>
			<mask maskUnits="userSpaceOnUse" x="76.4" y="64.7" width="156.5" height="156.5" id="SVGID_21_">
				<g class="st20">
					<radialGradient id="SVGID_22_" cx="154.9299" cy="142.9363" r="23.3289" gradientUnits="userSpaceOnUse">
						<stop  offset="0.1664" style="stop-color:#FFFFFF"/>
						<stop  offset="0.1876" style="stop-color:#EBEBEB"/>
						<stop  offset="0.2456" style="stop-color:#BABABA"/>
						<stop  offset="0.3083" style="stop-color:#8E8E8E"/>
						<stop  offset="0.3742" style="stop-color:#686868"/>
						<stop  offset="0.4441" style="stop-color:#474747"/>
						<stop  offset="0.5193" style="stop-color:#2D2D2D"/>
						<stop  offset="0.6017" style="stop-color:#191919"/>
						<stop  offset="0.6951" style="stop-color:#0B0B0B"/>
						<stop  offset="0.8088" style="stop-color:#030303"/>
						<stop  offset="1" style="stop-color:#000000"/>
					</radialGradient>
					<path class="st21" d="M178.3,142.9c0-12.9-10.4-23.3-23.3-23.3c-12.9,0-23.3,10.4-23.3,23.3c0,12.9,10.4,23.3,23.3,23.3
						C167.8,166.3,178.3,155.8,178.3,142.9z"/>
				</g>
			</mask>
			<radialGradient id="SVGID_23_" cx="154.687" cy="142.9366" r="78.2412" gradientUnits="userSpaceOnUse">
				<stop  offset="0" style="stop-color:#FFFFFF"/>
				<stop  offset="0.5897" style="stop-color:#FFFFFF;stop-opacity:0"/>
			</radialGradient>
			<circle class="st22" cx="154.7" cy="142.9" r="78.2"/>
		</g>
	</g>
	<path d="M145.2,136.2c-0.4-1-6.5-14.7-13.5-29c-7.6-15.5-16.1-31.7-16.4-32.4c-0.7-1.3-1.2-2.1-1.9-2.1c-0.7,0-1.2,0.7-1.9,2.1
		c-0.4,0.7-9,17.3-16.5,32.4c-7.4,15-13.1,28.2-13.5,29c-0.8,1.7-1.6,3.6-1.6,5.5s0.7,3.5,1.6,5.6c0.4,1,6.6,14.8,13.5,29.1
		c7.6,15.5,16.1,31.6,16.4,32.3c0.6,1.3,1.2,2.1,1.9,2.1c0.7,0,1.3-0.8,1.9-2.1c0.3-0.7,8.8-16.7,16.4-32.3
		c7-14.2,13.1-28,13.6-29.1c0.9-2.2,1.6-3.6,1.6-5.5C146.8,139.9,146.2,138.3,145.2,136.2z M143.9,146.5l0,0.1
		c-0.1,0.1-6.3,14.2-13.5,29c-6.5,13.2-13.5,26.8-16.2,32l-0.1,0.2c-0.3,0.5-0.5,0.9-0.6,0.9c-0.1,0-0.3-0.4-0.6-0.9
		c0-0.1-0.2-0.3-0.4-0.8c-7.6-14.6-12.9-25.2-16-31.5c-6.9-14.2-13.1-28-13.5-29l-0.1-0.1c-0.8-1.8-1.4-3.3-1.4-4.8
		c0-1.5,0.7-3.2,1.5-4.8c0-0.1,0.2-0.4,0.4-0.8c4.4-9.9,8.8-19.4,13.1-28.1c7.6-15.4,16.4-32.2,16.4-32.3c0.2-0.5,0.5-0.9,0.6-0.9
		c0.1,0,0.4,0.4,0.6,0.9c0.1,0.1,8.6,16.4,16.4,32.3c6.8,14,12.8,27.4,13.5,28.9c0.9,2,1.4,3.3,1.4,4.9
		C145.3,143.3,144.8,144.5,143.9,146.5z"/>
	<path d="M224.8,134.1c-4.1-8.6-16.9-33.8-27.8-53.5c-14.9-27-41.5-71.4-44.5-75.5c-3-4-4.6-4.2-7.4-4.5l-0.4,0
		c-4-0.4-21.1-0.6-31.3-0.6c-8.8,0-27.4,0.2-31.8,0.7c-4.1,0.4-5.2,1.7-7.5,4.7c-3.2,4.2-30.2,49.9-44.3,75.2
		C19.6,99,3.5,130.7,2,134.1c-1.4,3.1-2,5.5-2,7.6c0,2.3,0.6,4.7,2,7.6c3.4,7.3,13.6,27.6,27.8,53.5c14.8,27,41.6,71.6,44.5,75.5
		c3,4.1,5,4.3,7.7,4.5c4.1,0.4,21.9,0.6,31.4,0.6c10.3,0,28.9-0.4,31.4-0.6c2.5-0.2,4.7-0.4,7.7-4.5c2.7-3.7,31.5-51.8,44.5-75.5
		c12.4-22.7,26.2-49.9,27.8-53.5c1.7-3.9,2-6,2-7.6C226.7,140.4,226.5,137.7,224.8,134.1z M223.3,148.7
		c-1.6,3.5-15.3,30.7-27.7,53.4c-12.9,23.6-41.7,71.6-44.4,75.3c-2.5,3.5-4.1,3.7-6.6,3.9c-2.5,0.2-21.1,0.6-31.3,0.6
		c-9.5,0-27.2-0.3-31.3-0.6c-2.6-0.2-4-0.4-6.6-3.9c-2.8-3.9-29.6-48.4-44.4-75.3C16.9,176.3,6.8,156,3.4,148.7
		c-1.3-2.7-1.8-4.9-1.8-7c0-1.9,0.6-4.1,1.9-7c1.5-3.4,17.6-35,27.7-53.4C45.2,56,72.1,10.5,75.3,6.3c2.2-2.9,3-3.8,6.5-4.1
		c4.3-0.4,22.9-0.7,31.6-0.7c10.2,0,27.2,0.2,31.1,0.6l0.4,0c2.6,0.3,3.8,0.4,6.3,3.9c3,4,29.5,48.3,44.4,75.3
		c10.8,19.7,23.6,44.8,27.7,53.4c1.6,3.3,1.8,5.8,1.8,7C225.2,143.2,225,145.1,223.3,148.7z"/>
</g>
</svg>
